{
  "accessors": [
    {
      "bufferView": 2,
      "componentType": 5126,
      "count": 4,
      "max": [
        1.0,
        1.0,
        0.0
      ],
      "min": [
        -1.0,
        -1.0,
        0.0
      ],
      "type": "VEC3"
    },
    {
      "bufferView": 2,
      "byteOffset": 48,
      "componentType": 5126,
      "count": 4,
      "max": [
        0.0,
        0.0,
        1.0
      ],
      "min": [
        0.0,
        0.0,
        1.0
      ],
      "type": "VEC3"
    },
    {
      "bufferView": 1,
      "componentType": 5126,
      "count": 4,
      "max": [
        1.0,
        1.0
      ],
      "min": [
        0.0,
        0.0
      ],
      "type": "VEC2"
    },
    {
      "bufferView": 0,
      "componentType": 5125,
      "count": 6,
      "type": "SCALAR"
    },
    {
      "bufferView": 2,
      "byteOffset": 96,
      "componentType": 5126,
      "count": 1231,
      "max": [
        0.4283546209335327,
        0.6770827174186707,
        0.37151792645454407
      ],
      "min": [
        -0.4283546209335327,
        -0.013116307556629181,
        -0.7914766669273376
      ],
      "type": "VEC3"
    },
    {
      "bufferView": 2,
      "byteOffset": 14868,
      "componentType": 5126,
      "count": 1231,
      "max": [
        1.0,
        0.9999490976333618,
        0.9997607469558716
      ],
      "min": [
        -1.0,
        -0.9997288584709167,
        -0.9999991655349731
      ],
      "type": "VEC3"
    },
    {
      "bufferView": 1,
      "byteOffset": 32,
      "componentType": 5126,
      "count": 1231,
      "max": [
        0.992364764213562,
        0.9947991371154785
      ],
      "min": [
        0.005956130567938089,
        0.005198743660002947
      ],
      "type": "VEC2"
    },
    {
      "bufferView": 0,
      "byteOffset": 24,
      "componentType": 5125,
      "count": 6300,
      "type": "SCALAR"
    },
    {
      "bufferView": 2,
      "byteOffset": 29640,
      "componentType": 5126,
      "count": 114,
      "max": [
        0.08968348056077957,
        0.08968359231948853,
        0.0896836593747139
      ],
      "min": [
        -0.08968362957239151,
        -0.08968351781368256,
        -0.08968345820903778
      ],
      "type": "VEC3"
    },
    {
      "bufferView": 2,
      "byteOffset": 31008,
      "componentType": 5126,
      "count": 114,
      "max": [
        1.0,
        1.0,
        1.0
      ],
      "min": [
        -1.0,
        -1.0,
        -1.0
      ],
      "type": "VEC3"
    },
    {
      "bufferView": 1,
      "byteOffset": 9880,
      "componentType": 5126,
      "count": 114,
      "max": [
        0.1348152905702591,
        0.8614210486412048
      ],
      "min": [
        0.008972068317234516,
        0.5261481404304504
      ],
      "type": "VEC2"
    },
    {
      "bufferView": 0,
      "byteOffset": 25224,
      "componentType": 5125,
      "count": 576,
      "type": "SCALAR"
    },
    {
      "bufferView": 2,
      "byteOffset": 32376,
      "componentType": 5126,
      "count": 367,
      "max": [
        0.1740322709083557,
        0.08340665698051453,
        0.03809395432472229
      ],
      "min": [
        -0.0880008339881897,
        -0.08122995495796204,
        -0.47505635023117065
      ],
      "type": "VEC3"
    },
    {
      "bufferView": 2,
      "byteOffset": 36780,
      "componentType": 5126,
      "count": 367,
      "max": [
        0.9838964939117432,
        0.998286783695221,
        0.98125821352005
      ],
      "min": [
        -0.9998831152915955,
        -0.9952020049095154,
        -0.9901291728019714
      ],
      "type": "VEC3"
    },
    {
      "bufferView": 1,
      "byteOffset": 10792,
      "componentType": 5126,
      "count": 367,
      "max": [
        0.9955750107765198,
        0.8953702449798584
      ],
      "min": [
        0.07760319858789444,
        0.2846772074699402
      ],
      "type": "VEC2"
    },
    {
      "bufferView": 0,
      "byteOffset": 27528,
      "componentType": 5125,
      "count": 1500,
      "type": "SCALAR"
    },
    {
      "bufferView": 2,
      "byteOffset": 41184,
      "componentType": 5126,
      "count": 184,
      "max": [
        0.15404510498046875,
        0.1361885666847229,
        0.022262096405029297
      ],
      "min": [
        -0.06062036007642746,
        -0.14579002559185028,
        -0.31812119483947754
      ],
      "type": "VEC3"
    },
    {
      "bufferView": 2,
      "byteOffset": 43392,
      "componentType": 5126,
      "count": 184,
      "max": [
        0.9944618344306946,
        0.9094664454460144,
        0.9962936639785767
      ],
      "min": [
        -0.9953371286392212,
        -0.9793550968170166,
        -1.0
      ],
      "type": "VEC3"
    },
    {
      "bufferView": 1,
      "byteOffset": 13728,
      "componentType": 5126,
      "count": 184,
      "max": [
        0.875115156173706,
        0.8352328538894653
      ],
      "min": [
        0.33006107807159424,
        0.25074246525764465
      ],
      "type": "VEC2"
    },
    {
      "bufferView": 0,
      "byteOffset": 33528,
      "componentType": 5125,
      "count": 846,
      "type": "SCALAR"
    },
    {
      "bufferView": 2,
      "byteOffset": 45600,
      "componentType": 5126,
      "count": 367,
      "max": [
        0.1740322709083557,
        0.08340665698051453,
        0.03809395432472229
      ],
      "min": [
        -0.0880008339881897,
        -0.08122995495796204,
        -0.47505635023117065
      ],
      "type": "VEC3"
    },
    {
      "bufferView": 2,
      "byteOffset": 50004,
      "componentType": 5126,
      "count": 367,
      "max": [
        0.9838964939117432,
        0.998286783695221,
        0.98125821352005
      ],
      "min": [
        -0.9998831152915955,
        -0.9952020049095154,
        -0.9901291728019714
      ],
      "type": "VEC3"
    },
    {
      "bufferView": 1,
      "byteOffset": 15200,
      "componentType": 5126,
      "count": 367,
      "max": [
        0.9955750107765198,
        0.8953702449798584
      ],
      "min": [
        0.07760319858789444,
        0.2846772074699402
      ],
      "type": "VEC2"
    },
    {
      "bufferView": 0,
      "byteOffset": 36912,
      "componentType": 5125,
      "count": 1500,
      "type": "SCALAR"
    },
    {
      "bufferView": 2,
      "byteOffset": 54408,
      "componentType": 5126,
      "count": 114,
      "max": [
        0.08968348056077957,
        0.08968359231948853,
        0.0896836593747139
      ],
      "min": [
        -0.08968362957239151,
        -0.08968351781368256,
        -0.08968345820903778
      ],
      "type": "VEC3"
    },
    {
      "bufferView": 2,
      "byteOffset": 55776,
      "componentType": 5126,
      "count": 114,
      "max": [
        1.0,
        1.0,
        1.0
      ],
      "min": [
        -1.0,
        -1.0,
        -1.0
      ],
      "type": "VEC3"
    },
    {
      "bufferView": 1,
      "byteOffset": 18136,
      "componentType": 5126,
      "count": 114,
      "max": [
        0.1348152905702591,
        0.8614210486412048
      ],
      "min": [
        0.008972068317234516,
        0.5261481404304504
      ],
      "type": "VEC2"
    },
    {
      "bufferView": 0,
      "byteOffset": 42912,
      "componentType": 5125,
      "count": 576,
      "type": "SCALAR"
    },
    {
      "bufferView": 2,
      "byteOffset": 57144,
      "componentType": 5126,
      "count": 184,
      "max": [
        0.15404510498046875,
        0.1361885666847229,
        0.022262096405029297
      ],
      "min": [
        -0.06062036007642746,
        -0.14579002559185028,
        -0.31812119483947754
      ],
      "type": "VEC3"
    },
    {
      "bufferView": 2,
      "byteOffset": 59352,
      "componentType": 5126,
      "count": 184,
      "max": [
        0.9944618344306946,
        0.9094664454460144,
        0.9962936639785767
      ],
      "min": [
        -0.9953371286392212,
        -0.9793550968170166,
        -1.0
      ],
      "type": "VEC3"
    },
    {
      "bufferView": 1,
      "byteOffset": 19048,
      "componentType": 5126,
      "count": 184,
      "max": [
        0.875115156173706,
        0.8352328538894653
      ],
      "min": [
        0.33006107807159424,
        0.25074246525764465
      ],
      "type": "VEC2"
    },
    {
      "bufferView": 0,
      "byteOffset": 45216,
      "componentType": 5125,
      "count": 846,
      "type": "SCALAR"
    }
  ],
  "asset": {
    "extras": {
      "author": "yanix (https://sketchfab.com/yanix)",
      "license": "CC-BY-4.0 (http://creativecommons.org/licenses/by/4.0/)",
      "source": "https://sketchfab.com/3d-models/steampunk-android-boy-f0404136e805401197075be932023ad8",
      "title": "Steampunk Android Boy"
    },
    "generator": "Sketchfab-15.55.0",
    "version": "2.0"
  },
  "bufferViews": [
    {
      "buffer": 0,
      "byteLength": 48600,
      "name": "floatBufferViews",
      "target": 34963
    },
    {
      "buffer": 0,
      "byteLength": 20520,
      "byteOffset": 48600,
      "byteStride": 8,
      "name": "floatBufferViews",
      "target": 34962
    },
    {
      "buffer": 0,
      "byteLength": 61560,
      "byteOffset": 69120,
      "byteStride": 12,
      "name": "floatBufferViews",
      "target": 34962
    }
  ],
  "buffers": [
    {
      "byteLength": 130680,
      "uri": "scene.bin"
    }
  ],
  "extensionsUsed": [
    "KHR_materials_unlit"
  ],
  "images": [
    {
      "uri": "textures/ground_baseColor.png"
    },
    {
      "uri": "textures/ground_emissive.png"
    },
    {
      "uri": "textures/steamboy_mat_baseColor.png"
    }
  ],
  "materials": [
    {
      "alphaMode": "BLEND",
      "doubleSided": true,
      "emissiveFactor": [
        1.0,
        1.0,
        1.0
      ],
      "emissiveTexture": {
        "index": 1
      },
      "extensions": {
        "KHR_materials_unlit": {}
      },
      "name": "ground",
      "pbrMetallicRoughness": {
        "baseColorFactor": [
          0.0,
          0.0,
          0.0,
          1.0
        ],
        "baseColorTexture": {
          "index": 0
        },
        "metallicFactor": 0.0
      }
    },
    {
      "doubleSided": true,
      "extensions": {
        "KHR_materials_unlit": {}
      },
      "name": "steamboy_mat",
      "pbrMetallicRoughness": {
        "baseColorTexture": {
          "index": 2
        },
        "metallicFactor": 0.0
      }
    }
  ],
  "meshes": [
    {
      "name": "Plane.005_ground_0",
      "primitives": [
        {
          "attributes": {
            "NORMAL": 1,
            "POSITION": 0,
            "TEXCOORD_0": 2
          },
          "indices": 3,
          "material": 0,
          "mode": 4
        }
      ]
    },
    {
      "name": "Plane_steamboy_mat_0",
      "primitives": [
        {
          "attributes": {
            "NORMAL": 5,
            "POSITION": 4,
            "TEXCOORD_0": 6
          },
          "indices": 7,
          "material": 1,
          "mode": 4
        }
      ]
    },
    {
      "name": "Cube_steamboy_mat_0",
      "primitives": [
        {
          "attributes": {
            "NORMAL": 9,
            "POSITION": 8,
            "TEXCOORD_0": 10
          },
          "indices": 11,
          "material": 1,
          "mode": 4
        }
      ]
    },
    {
      "name": "Plane.001_steamboy_mat_0",
      "primitives": [
        {
          "attributes": {
            "NORMAL": 13,
            "POSITION": 12,
            "TEXCOORD_0": 14
          },
          "indices": 15,
          "material": 1,
          "mode": 4
        }
      ]
    },
    {
      "name": "Plane.002_steamboy_mat_0",
      "primitives": [
        {
          "attributes": {
            "NORMAL": 17,
            "POSITION": 16,
            "TEXCOORD_0": 18
          },
          "indices": 19,
          "material": 1,
          "mode": 4
        }
      ]
    },
    {
      "name": "Plane.004_steamboy_mat_0",
      "primitives": [
        {
          "attributes": {
            "NORMAL": 21,
            "POSITION": 20,
            "TEXCOORD_0": 22
          },
          "indices": 23,
          "material": 1,
          "mode": 4
        }
      ]
    },
    {
      "name": "Cube.001_steamboy_mat_0",
      "primitives": [
        {
          "attributes": {
            "NORMAL": 25,
            "POSITION": 24,
            "TEXCOORD_0": 26
          },
          "indices": 27,
          "material": 1,
          "mode": 4
        }
      ]
    },
    {
      "name": "Plane.003_steamboy_mat_0",
      "primitives": [
        {
          "attributes": {
            "NORMAL": 29,
            "POSITION": 28,
            "TEXCOORD_0": 30
          },
          "indices": 31,
          "material": 1,
          "mode": 4
        }
      ]
    }
  ],
  "nodes": [
    {
      "children": [
        1
      ],
      "matrix": [
        1.0,
        0.0,
        0.0,
        0.0,
        0.0,
        2.220446049250313e-16,
        -1.0,
        0.0,
        0.0,
        1.0,
        2.220446049250313e-16,
        0.0,
        0.0,
        0.0,
        0.0,
        1.0
      ],
      "name": "Sketchfab_model"
    },
    {
      "children": [
        2
      ],
      "matrix": [
        0.009999999776482582,
        0.0,
        0.0,
        0.0,
        0.0,
        0.0,
        0.009999999776482582,
        0.0,
        0.0,
        -0.009999999776482582,
        0.0,
        0.0,
        0.0,
        0.0,
        0.0,
        1.0
      ],
      "name": "steampunk_android_boy.fbx"
    },
    {
      "children": [
        3,
        5,
        7,
        9,
        11,
        13,
        15,
        17
      ],
      "name": "RootNode"
    },
    {
      "children": [
        4
      ],
      "matrix": [
        100.0,
        0.0,
        0.0,
        0.0,
        0.0,
        -1.629206793918314e-05,
        -99.99999999999868,
        0.0,
        0.0,
        99.99999999999868,
        -1.629206793918314e-05,
        0.0,
        0.0,
        0.0,
        0.0,
        1.0
      ],
      "name": "Plane.005"
    },
    {
      "mesh": 0,
      "name": "Plane.005_ground_0"
    },
    {
      "children": [
        6
      ],
      "matrix": [
        100.0,
        0.0,
        0.0,
        0.0,
        0.0,
        -1.629206793918314e-05,
        -99.99999999999868,
        0.0,
        0.0,
        99.99999999999868,
        -1.629206793918314e-05,
        0.0,
        0.0,
        108.66743469238281,
        32.197750091552734,
        1.0
      ],
      "name": "Plane"
    },
    {
      "mesh": 1,
      "name": "Plane_steamboy_mat_0"
    },
    {
      "children": [
        8
      ],
      "matrix": [
        100.0,
        0.0,
        0.0,
        0.0,
        0.0,
        -1.629206793918314e-05,
        -99.99999999999868,
        0.0,
        0.0,
        99.99999999999868,
        -1.629206793918314e-05,
        0.0,
        15.71981430053711,
        103.546142578125,
        20.650686264038086,
        1.0
      ],
      "name": "Cube"
    },
    {
      "mesh": 2,
      "name": "Cube_steamboy_mat_0"
    },
    {
      "children": [
        10
      ],
      "matrix": [
        99.61946229587397,
        8.715572614699171,
        -3.6768387679847964e-07,
        0.0,
        1.0536623622214858e-06,
        -1.626211747485229e-05,
        -99.99999999999866,
        0.0,
        -8.715572614699113,
        99.61946229587267,
        -1.6292066696197e-05,
        0.0,
        15.31659984588623,
        68.27247619628906,
        -4.671591758728027,
        1.0
      ],
      "name": "Plane.001"
    },
    {
      "mesh": 3,
      "name": "Plane.001_steamboy_mat_0"
    },
    {
      "children": [
        12
      ],
      "matrix": [
        100.0,
        0.0,
        0.0,
        0.0,
        0.0,
        -1.629206793918314e-05,
        -99.99999999999868,
        0.0,
        0.0,
        99.99999999999868,
        -1.629206793918314e-05,
        0.0,
        7.446756839752197,
        31.831562042236328,
        0.19677579402923584,
        1.0
      ],
      "name": "Plane.002"
    },
    {
      "mesh": 4,
      "name": "Plane.002_steamboy_mat_0"
    },
    {
      "children": [
        14
      ],
      "matrix": [
        -99.61946229587397,
        8.715572614699168,
        -3.676838781862583e-07,
        -0.0,
        7.472545797415631e-07,
        4.322459723482552e-06,
        -99.9999999999999,
        -0.0,
        8.715572614699147,
        99.61946229587389,
        4.371138650613578e-06,
        -0.0,
        -15.392440795898438,
        68.27247619628906,
        -4.671591758728027,
        1.0
      ],
      "name": "Plane.004"
    },
    {
      "mesh": 5,
      "name": "Plane.004_steamboy_mat_0"
    },
    {
      "children": [
        16
      ],
      "matrix": [
        -100.0,
        -0.0,
        -0.0,
        -0.0,
        -0.0,
        1.629206793918314e-05,
        -99.99999999999868,
        -0.0,
        -0.0,
        99.99999999999868,
        1.629206793918314e-05,
        -0.0,
        -15.377518653869629,
        103.546142578125,
        20.650686264038086,
        1.0
      ],
      "name": "Cube.001"
    },
    {
      "mesh": 6,
      "name": "Cube.001_steamboy_mat_0"
    },
    {
      "children": [
        18
      ],
      "matrix": [
        -100.0,
        -0.0,
        -0.0,
        -0.0,
        -0.0,
        1.629206793918314e-05,
        -99.99999999999868,
        -0.0,
        -0.0,
        99.99999999999868,
        1.629206793918314e-05,
        -0.0,
        -7.454306602478027,
        31.831562042236328,
        0.19677579402923584,
        1.0
      ],
      "name": "Plane.003"
    },
    {
      "mesh": 7,
      "name": "Plane.003_steamboy_mat_0"
    }
  ],
  "samplers": [
    {
      "magFilter": 9729,
      "minFilter": 9987,
      "wrapS": 10497,
      "wrapT": 10497
    }
  ],
  "scene": 0,
  "scenes": [
    {
      "name": "Sketchfab_Scene",
      "nodes": [
        0
      ]
    }
  ],
  "textures": [
    {
      "sampler": 0,
      "source": 0
    },
    {
      "sampler": 0,
      "source": 1
    },
    {
      "sampler": 0,
      "source": 2
    }
  ]
}
